{"title":"MYLENE FARMER_NRJ Music Awards 2012_Du Temps[ 1080p]","uid":6997493,"size":451759854,"categoryP":"video","categoryS":"music_videos","magnet":"?xt=urn:btih:94661fbb9a9877808132481ce9a01e53efe95b63&amp;dn=MYLENE+FARMER_NRJ+Music+Awards+2012_Du+Temps%5B+1080p%5D&amp;tr=udp%3A%2F%2Ftracker.openbittorrent.com%3A80&amp;tr=udp%3A%2F%2Fopen.demonii.com%3A1337&amp;tr=udp%3A%2F%2Ftracker.coppersurfer.tk%3A6969&amp;tr=udp%3A%2F%2Fexodus.desync.com%3A6969","seeders":1,"leechers":0,"uploader":null,"files":-1,"time":1327937227,"description":"\nFormat                           : AVI\nFormat/Info                      : Audio Video Interleave\nFile size                        : 431 MiB\nDuration                         : 6mn 44s\nOverall bit rate                 : 8 925 Kbps\nWriting library                  : TMPGEnc 4.0 XPress Version. 4.7.7.307\n\nVideo\nID                               : 0\nFormat                           : MPEG-4 Visual\nFormat profile                   : Advanced Simple@L5\nFormat settings, BVOP            : 2\nFormat settings, QPel            : No\nFormat settings, GMC             : No warppoints\nFormat settings, Matrix          : Default (H.263)\nMuxing mode                      : Packed bitstream\nCodec ID                         : XVID\nCodec ID/Hint                    : XviD\nDuration                         : 6mn 44s\nBit rate                         : 7 376 Kbps\nWidth                            : 1 920 pixels\nHeight                           : 1 080 pixels\nDisplay aspect ratio             : 16:9\nFrame rate                       : 25.000 fps\nColor space                      : YUV\nChroma subsampling               : 4:2:0\nBit depth                        : 8 bits\nScan type                        : Progressive\nCompression mode                 : Lossy\nBits/(Pixel*Frame)               : 0.142\nStream size                      : 356 MiB (83%)\nWriting library                  : XviD 63\n\nAudio\nID                               : 1\nFormat                           : PCM\nFormat settings, Endianness      : Little\nFormat settings, Sign            : Signed\nCodec ID                         : 1\nCodec ID/Hint                    : Microsoft\nDuration                         : 6mn 44s\nBit rate mode                    : Constant\nBit rate                         : 1 536 Kbps\nChannel(s)                       : 2 channels\nSampling rate                    : 48.0 KHz\nBit depth                        : 16 bits\nStream size                      : 74.1 MiB (17%)\nInterleave, duration             : 40 ms (1.00 video frame)\nInterleave, preload duration     : 479 ms\n\n","torrent":{"xt":"urn:btih:94661fbb9a9877808132481ce9a01e53efe95b63","amp;dn":"MYLENE+FARMER_NRJ+Music+Awards+2012_Du+Temps%5B+1080p%5D","amp;tr":["udp%3A%2F%2Ftracker.openbittorrent.com%3A80","udp%3A%2F%2Fopen.demonii.com%3A1337","udp%3A%2F%2Ftracker.coppersurfer.tk%3A6969","udp%3A%2F%2Fexodus.desync.com%3A6969"],"infoHash":"94661fbb9a9877808132481ce9a01e53efe95b63","infoHashBuffer":{"type":"Buffer","data":[148,102,31,187,154,152,119,128,129,50,72,28,233,160,30,83,239,233,91,99]},"announce":[],"urlList":[]}}